<svg xmlns = "http://www.w3.org/2000/svg" width = "1000" height = "1000">
<g>
<polygon points = "0.000, 767.219 0.000, 962.394 69.770, 886.781 82.182, 834.274 83.932, 820.601 "
fill = "none" stroke = "black"/>
</g>
<g>
<polygon points = "415.698, 635.132 455.579, 637.453 491.407, 558.247 401.877, 474.430 400.687, 474.163 389.667, 579.229 "
fill = "none" stroke = "black"/>
</g>
<g>
<polygon points = "97.871, 348.769 0.000, 348.051 0.000, 477.950 88.291, 430.016 99.076, 398.900 "
fill = "none" stroke = "black"/>
</g>
<g>
<polygon points = "981.529, 788.890 953.231, 734.440 869.781, 694.619 810.704, 739.989 868.756, 791.407 "
fill = "none" stroke = "black"/>
</g>
<g>
<polygon points = "846.683, 945.614 678.278, 951.952 685.885, 1000.000 903.971, 1000.000 "
fill = "none" stroke = "black"/>
</g>
<g>
<polygon points = "554.635, 476.740 530.539, 374.940 516.274, 357.718 447.086, 335.603 457.404, 456.785 "
fill = "none" stroke = "black"/>
</g>
<g>
<polygon points = "301.414, 1000.000 428.500, 901.814 429.238, 866.045 300.322, 897.284 279.396, 1000.000 "
fill = "none" stroke = "black"/>
</g>
<g>
<polygon points = "665.724, 475.423 645.735, 437.393 557.651, 480.233 556.875, 543.281 584.829, 590.333 599.885, 593.192 "
fill = "none" stroke = "black"/>
</g>
<g>
<polygon points = "792.831, 439.337 783.714, 437.375 721.565, 487.123 697.093, 573.732 818.337, 541.730 825.408, 523.273 "
fill = "none" stroke = "black"/>
</g>
<g>
<polygon points = "654.938, 630.683 599.885, 593.192 584.829, 590.333 528.078, 672.533 529.436, 675.347 625.625, 727.600 656.251, 635.598 "
fill = "none" stroke = "black"/>
</g>
<g>
<polygon points = "898.154, 241.653 914.668, 274.169 1000.000, 257.687 1000.000, 159.981 991.689, 158.105 910.584, 165.092 "
fill = "none" stroke = "black"/>
</g>
<g>
<polygon points = "0.000, 228.797 0.000, 348.051 97.871, 348.769 106.513, 332.528 46.115, 220.071 "
fill = "none" stroke = "black"/>
</g>
<g>
<polygon points = "545.539, 318.916 516.274, 357.718 530.539, 374.940 653.361, 370.713 657.114, 260.083 "
fill = "none" stroke = "black"/>
</g>
<g>
<polygon points = "285.993, 668.835 268.176, 708.550 305.074, 766.384 308.441, 770.212 324.808, 771.446 412.051, 723.679 360.472, 663.097 "
fill = "none" stroke = "black"/>
</g>
<g>
<polygon points = "657.114, 260.083 653.361, 370.713 668.259, 393.559 687.923, 386.991 739.886, 285.761 705.025, 205.369 659.451, 255.633 "
fill = "none" stroke = "black"/>
</g>
<g>
<polygon points = "0.000, 542.121 128.622, 541.077 88.291, 430.016 0.000, 477.950 "
fill = "none" stroke = "black"/>
</g>
<g>
<polygon points = "235.395, 521.780 226.173, 505.033 223.872, 505.064 156.464, 550.872 141.541, 597.050 191.684, 628.272 261.829, 649.579 "
fill = "none" stroke = "black"/>
</g>
<g>
<polygon points = "518.635, 695.532 428.743, 732.095 470.301, 838.527 538.053, 820.016 538.862, 818.379 "
fill = "none" stroke = "black"/>
</g>
<g>
<polygon points = "324.808, 771.446 308.441, 770.212 289.730, 884.267 300.322, 897.284 429.238, 866.045 434.221, 860.926 "
fill = "none" stroke = "black"/>
</g>
<g>
<polygon points = "891.734, 16.001 857.327, 81.669 867.234, 123.316 910.584, 165.092 991.689, 158.105 "
fill = "none" stroke = "black"/>
</g>
<g>
<polygon points = "818.337, 541.730 838.817, 568.695 865.013, 578.054 910.348, 579.785 960.900, 556.801 984.718, 537.238 930.745, 484.172 825.408, 523.273 "
fill = "none" stroke = "black"/>
</g>
<g>
<polygon points = "298.268, 115.605 312.730, 115.822 319.378, 88.832 317.538, 0.000 212.583, 0.000 214.385, 67.284 "
fill = "none" stroke = "black"/>
</g>
<g>
<polygon points = "289.730, 884.267 227.100, 869.203 200.251, 949.336 209.568, 1000.000 279.396, 1000.000 300.322, 897.284 "
fill = "none" stroke = "black"/>
</g>
<g>
<polygon points = "0.000, 609.438 120.266, 611.824 141.541, 597.050 156.464, 550.872 128.622, 541.077 0.000, 542.121 "
fill = "none" stroke = "black"/>
</g>
<g>
<polygon points = "227.083, 222.960 298.268, 115.605 214.385, 67.284 191.730, 95.108 188.390, 187.055 "
fill = "none" stroke = "black"/>
</g>
<g>
<polygon points = "334.956, 169.151 400.343, 203.574 446.953, 213.641 479.511, 171.754 514.858, 110.146 327.834, 149.772 "
fill = "none" stroke = "black"/>
</g>
<g>
<polygon points = "705.025, 205.369 739.886, 285.761 855.246, 253.906 781.254, 170.755 711.453, 193.139 "
fill = "none" stroke = "black"/>
</g>
<g>
<polygon points = "0.000, 1000.000 153.473, 1000.000 69.770, 886.781 0.000, 962.394 "
fill = "none" stroke = "black"/>
</g>
<g>
<polygon points = "783.722, 408.172 783.714, 437.375 792.831, 439.337 916.513, 407.877 931.719, 389.821 901.972, 304.459 "
fill = "none" stroke = "black"/>
</g>
<g>
<polygon points = "857.327, 81.669 891.734, 16.001 895.398, 0.000 735.374, 0.000 780.071, 84.241 "
fill = "none" stroke = "black"/>
</g>
<g>
<polygon points = "138.859, 764.903 268.176, 708.550 285.993, 668.835 261.829, 649.579 191.684, 628.272 "
fill = "none" stroke = "black"/>
</g>
<g>
<polygon points = "554.635, 476.740 457.404, 456.785 401.877, 474.430 491.407, 558.247 556.875, 543.281 557.651, 480.233 "
fill = "none" stroke = "black"/>
</g>
<g>
<polygon points = "400.343, 203.574 334.956, 169.151 271.933, 300.160 273.584, 302.755 300.893, 328.880 323.523, 328.077 "
fill = "none" stroke = "black"/>
</g>
<g>
<polygon points = "260.358, 483.979 389.667, 579.229 400.687, 474.163 365.913, 454.546 292.783, 453.372 "
fill = "none" stroke = "black"/>
</g>
<g>
<polygon points = "305.074, 766.384 151.191, 816.136 227.100, 869.203 289.730, 884.267 308.441, 770.212 "
fill = "none" stroke = "black"/>
</g>
<g>
<polygon points = "448.046, 221.377 430.517, 325.430 447.086, 335.603 516.274, 357.718 545.539, 318.916 504.885, 241.827 "
fill = "none" stroke = "black"/>
</g>
<g>
<polygon points = "528.078, 672.533 584.829, 590.333 556.875, 543.281 491.407, 558.247 455.579, 637.453 "
fill = "none" stroke = "black"/>
</g>
<g>
<polygon points = "599.885, 593.192 654.938, 630.683 697.093, 573.732 721.565, 487.123 665.724, 475.423 "
fill = "none" stroke = "black"/>
</g>
<g>
<polygon points = "711.453, 193.139 704.887, 167.838 625.464, 102.831 606.896, 128.717 600.509, 196.746 659.451, 255.633 705.025, 205.369 "
fill = "none" stroke = "black"/>
</g>
<g>
<polygon points = "258.052, 291.717 177.742, 296.659 152.137, 325.705 216.415, 445.957 273.584, 302.755 271.933, 300.160 "
fill = "none" stroke = "black"/>
</g>
<g>
<polygon points = "121.980, 776.005 89.658, 697.289 0.000, 716.976 0.000, 767.219 83.932, 820.601 113.430, 796.278 "
fill = "none" stroke = "black"/>
</g>
<g>
<polygon points = "428.500, 901.814 301.414, 1000.000 505.234, 1000.000 "
fill = "none" stroke = "black"/>
</g>
<g>
<polygon points = "1000.000, 817.054 1000.000, 793.857 981.529, 788.890 868.756, 791.407 838.956, 843.657 856.346, 863.520 908.492, 881.963 "
fill = "none" stroke = "black"/>
</g>
<g>
<polygon points = "327.834, 149.772 312.730, 115.822 298.268, 115.605 227.083, 222.960 258.052, 291.717 271.933, 300.160 334.956, 169.151 "
fill = "none" stroke = "black"/>
</g>
<g>
<polygon points = "220.833, 494.481 216.415, 445.957 152.137, 325.705 106.513, 332.528 97.871, 348.769 99.076, 398.900 "
fill = "none" stroke = "black"/>
</g>
<g>
<polygon points = "387.326, 644.121 415.698, 635.132 389.667, 579.229 260.358, 483.979 226.173, 505.033 235.395, 521.780 "
fill = "none" stroke = "black"/>
</g>
<g>
<polygon points = "446.953, 213.641 448.046, 221.377 504.885, 241.827 600.509, 196.746 606.896, 128.717 479.511, 171.754 "
fill = "none" stroke = "black"/>
</g>
<g>
<polygon points = "984.718, 537.238 1000.000, 534.345 1000.000, 372.851 931.719, 389.821 916.513, 407.877 930.745, 484.172 "
fill = "none" stroke = "black"/>
</g>
<g>
<polygon points = "953.231, 734.440 981.529, 788.890 1000.000, 793.857 1000.000, 534.345 984.718, 537.238 960.900, 556.801 "
fill = "none" stroke = "black"/>
</g>
<g>
<polygon points = "635.834, 771.841 636.222, 750.264 625.625, 727.600 529.436, 675.347 518.635, 695.532 538.862, 818.379 "
fill = "none" stroke = "black"/>
</g>
<g>
<polygon points = "524.730, 95.039 584.364, 15.541 582.664, 0.000 525.276, 0.000 382.769, 68.982 "
fill = "none" stroke = "black"/>
</g>
<g>
<polygon points = "138.859, 764.903 191.684, 628.272 141.541, 597.050 120.266, 611.824 89.658, 697.289 121.980, 776.005 "
fill = "none" stroke = "black"/>
</g>
<g>
<polygon points = "156.464, 550.872 223.872, 505.064 220.833, 494.481 99.076, 398.900 88.291, 430.016 128.622, 541.077 "
fill = "none" stroke = "black"/>
</g>
<g>
<polygon points = "636.222, 750.264 635.834, 771.841 663.769, 851.385 787.071, 832.951 718.065, 752.759 "
fill = "none" stroke = "black"/>
</g>
<g>
<polygon points = "434.221, 860.926 466.039, 843.870 470.301, 838.527 428.743, 732.095 412.051, 723.679 324.808, 771.446 "
fill = "none" stroke = "black"/>
</g>
<g>
<polygon points = "865.013, 578.054 768.885, 724.623 810.704, 739.989 869.781, 694.619 910.348, 579.785 "
fill = "none" stroke = "black"/>
</g>
<g>
<polygon points = "910.348, 579.785 869.781, 694.619 953.231, 734.440 960.900, 556.801 "
fill = "none" stroke = "black"/>
</g>
<g>
<polygon points = "903.971, 1000.000 972.397, 1000.000 908.492, 881.963 856.346, 863.520 849.694, 873.423 846.683, 945.614 "
fill = "none" stroke = "black"/>
</g>
<g>
<polygon points = "0.000, 609.438 0.000, 716.976 89.658, 697.289 120.266, 611.824 "
fill = "none" stroke = "black"/>
</g>
<g>
<polygon points = "78.634, 183.399 46.115, 220.071 106.513, 332.528 152.137, 325.705 177.742, 296.659 99.331, 193.391 "
fill = "none" stroke = "black"/>
</g>
<g>
<polygon points = "261.829, 649.579 285.993, 668.835 360.472, 663.097 387.326, 644.121 235.395, 521.780 "
fill = "none" stroke = "black"/>
</g>
<g>
<polygon points = "931.719, 389.821 1000.000, 372.851 1000.000, 257.687 914.668, 274.169 901.972, 304.459 "
fill = "none" stroke = "black"/>
</g>
<g>
<polygon points = "704.887, 167.838 768.929, 86.844 605.584, 39.622 625.464, 102.831 "
fill = "none" stroke = "black"/>
</g>
<g>
<polygon points = "701.387, 658.658 838.817, 568.695 818.337, 541.730 697.093, 573.732 654.938, 630.683 656.251, 635.598 "
fill = "none" stroke = "black"/>
</g>
<g>
<polygon points = "600.509, 196.746 504.885, 241.827 545.539, 318.916 657.114, 260.083 659.451, 255.633 "
fill = "none" stroke = "black"/>
</g>
<g>
<polygon points = "382.769, 68.982 319.378, 88.832 312.730, 115.822 327.834, 149.772 514.858, 110.146 524.730, 95.039 "
fill = "none" stroke = "black"/>
</g>
<g>
<polygon points = "430.517, 325.430 448.046, 221.377 446.953, 213.641 400.343, 203.574 323.523, 328.077 390.116, 338.196 "
fill = "none" stroke = "black"/>
</g>
<g>
<polygon points = "582.664, 0.000 584.364, 15.541 605.584, 39.622 768.929, 86.844 780.071, 84.241 735.374, 0.000 "
fill = "none" stroke = "black"/>
</g>
<g>
<polygon points = "810.704, 739.989 768.885, 724.623 766.652, 724.174 718.065, 752.759 787.071, 832.951 838.956, 843.657 868.756, 791.407 "
fill = "none" stroke = "black"/>
</g>
<g>
<polygon points = "466.039, 843.870 555.045, 962.837 611.636, 906.753 538.053, 820.016 470.301, 838.527 "
fill = "none" stroke = "black"/>
</g>
<g>
<polygon points = "514.858, 110.146 479.511, 171.754 606.896, 128.717 625.464, 102.831 605.584, 39.622 584.364, 15.541 524.730, 95.039 "
fill = "none" stroke = "black"/>
</g>
<g>
<polygon points = "768.929, 86.844 704.887, 167.838 711.453, 193.139 781.254, 170.755 867.234, 123.316 857.327, 81.669 780.071, 84.241 "
fill = "none" stroke = "black"/>
</g>
<g>
<polygon points = "752.208, 393.138 783.722, 408.172 901.972, 304.459 914.668, 274.169 898.154, 241.653 857.897, 254.071 "
fill = "none" stroke = "black"/>
</g>
<g>
<polygon points = "0.000, 228.797 46.115, 220.071 78.634, 183.399 68.745, 125.085 0.000, 31.559 "
fill = "none" stroke = "black"/>
</g>
<g>
<polygon points = "539.357, 1000.000 555.045, 962.837 466.039, 843.870 434.221, 860.926 429.238, 866.045 428.500, 901.814 505.234, 1000.000 "
fill = "none" stroke = "black"/>
</g>
<g>
<polygon points = "365.913, 454.546 400.687, 474.163 401.877, 474.430 457.404, 456.785 447.086, 335.603 430.517, 325.430 390.116, 338.196 "
fill = "none" stroke = "black"/>
</g>
<g>
<polygon points = "99.331, 193.391 188.390, 187.055 191.730, 95.108 102.118, 105.510 68.745, 125.085 78.634, 183.399 "
fill = "none" stroke = "black"/>
</g>
<g>
<polygon points = "930.745, 484.172 916.513, 407.877 792.831, 439.337 825.408, 523.273 "
fill = "none" stroke = "black"/>
</g>
<g>
<polygon points = "525.276, 0.000 317.538, 0.000 319.378, 88.832 382.769, 68.982 "
fill = "none" stroke = "black"/>
</g>
<g>
<polygon points = "529.436, 675.347 528.078, 672.533 455.579, 637.453 415.698, 635.132 387.326, 644.121 360.472, 663.097 412.051, 723.679 428.743, 732.095 518.635, 695.532 "
fill = "none" stroke = "black"/>
</g>
<g>
<polygon points = "838.817, 568.695 701.387, 658.658 766.652, 724.174 768.885, 724.623 865.013, 578.054 "
fill = "none" stroke = "black"/>
</g>
<g>
<polygon points = "718.065, 752.759 766.652, 724.174 701.387, 658.658 656.251, 635.598 625.625, 727.600 636.222, 750.264 "
fill = "none" stroke = "black"/>
</g>
<g>
<polygon points = "1000.000, 1000.000 1000.000, 817.054 908.492, 881.963 972.397, 1000.000 "
fill = "none" stroke = "black"/>
</g>
<g>
<polygon points = "685.885, 1000.000 678.278, 951.952 661.391, 913.782 654.220, 903.048 611.636, 906.753 555.045, 962.837 539.357, 1000.000 "
fill = "none" stroke = "black"/>
</g>
<g>
<polygon points = "855.246, 253.906 739.886, 285.761 687.923, 386.991 752.208, 393.138 857.897, 254.071 "
fill = "none" stroke = "black"/>
</g>
<g>
<polygon points = "390.116, 338.196 323.523, 328.077 300.893, 328.880 292.783, 453.372 365.913, 454.546 "
fill = "none" stroke = "black"/>
</g>
<g>
<polygon points = "258.052, 291.717 227.083, 222.960 188.390, 187.055 99.331, 193.391 177.742, 296.659 "
fill = "none" stroke = "black"/>
</g>
<g>
<polygon points = "661.391, 913.782 678.278, 951.952 846.683, 945.614 849.694, 873.423 "
fill = "none" stroke = "black"/>
</g>
<g>
<polygon points = "645.735, 437.393 665.724, 475.423 721.565, 487.123 783.714, 437.375 783.722, 408.172 752.208, 393.138 687.923, 386.991 668.259, 393.559 "
fill = "none" stroke = "black"/>
</g>
<g>
<polygon points = "69.770, 886.781 153.473, 1000.000 209.568, 1000.000 200.251, 949.336 82.182, 834.274 "
fill = "none" stroke = "black"/>
</g>
<g>
<polygon points = "1000.000, 159.981 1000.000, 0.000 895.398, 0.000 891.734, 16.001 991.689, 158.105 "
fill = "none" stroke = "black"/>
</g>
<g>
<polygon points = "223.872, 505.064 226.173, 505.033 260.358, 483.979 292.783, 453.372 300.893, 328.880 273.584, 302.755 216.415, 445.957 220.833, 494.481 "
fill = "none" stroke = "black"/>
</g>
<g>
<polygon points = "781.254, 170.755 855.246, 253.906 857.897, 254.071 898.154, 241.653 910.584, 165.092 867.234, 123.316 "
fill = "none" stroke = "black"/>
</g>
<g>
<polygon points = "138.859, 764.903 121.980, 776.005 113.430, 796.278 151.191, 816.136 305.074, 766.384 268.176, 708.550 "
fill = "none" stroke = "black"/>
</g>
<g>
<polygon points = "102.118, 105.510 191.730, 95.108 214.385, 67.284 212.583, 0.000 116.667, 0.000 "
fill = "none" stroke = "black"/>
</g>
<g>
<polygon points = "849.694, 873.423 856.346, 863.520 838.956, 843.657 787.071, 832.951 663.769, 851.385 654.220, 903.048 661.391, 913.782 "
fill = "none" stroke = "black"/>
</g>
<g>
<polygon points = "538.053, 820.016 611.636, 906.753 654.220, 903.048 663.769, 851.385 635.834, 771.841 538.862, 818.379 "
fill = "none" stroke = "black"/>
</g>
<g>
<polygon points = "0.000, 0.000 0.000, 31.559 68.745, 125.085 102.118, 105.510 116.667, 0.000 "
fill = "none" stroke = "black"/>
</g>
<g>
<polygon points = "83.932, 820.601 82.182, 834.274 200.251, 949.336 227.100, 869.203 151.191, 816.136 113.430, 796.278 "
fill = "none" stroke = "black"/>
</g>
<g>
<polygon points = "668.259, 393.559 653.361, 370.713 530.539, 374.940 554.635, 476.740 557.651, 480.233 645.735, 437.393 "
fill = "none" stroke = "black"/>
</g>
</svg>
