<svg xmlns = "http://www.w3.org/2000/svg" width = "1000" height = "1000">
<g>
<polygon points = "115.904, 883.136 130.180, 790.021 46.740, 701.230 0.000, 687.025 0.000, 1000.000 8.071, 1000.000 "
fill = "none" stroke = "black"/>
</g>
<g>
<polygon points = ""
fill = "none" stroke = "black"/>
</g>
<g>
<polygon points = "93.802, 217.597 66.375, 194.437 0.000, 203.393 0.000, 268.522 "
fill = "none" stroke = "black"/>
</g>
<g>
<polygon points = "962.686, 720.550 1000.000, 710.094 1000.000, 535.403 918.274, 555.689 849.747, 620.517 "
fill = "none" stroke = "black"/>
</g>
<g>
<polygon points = "875.350, 1000.000 869.261, 994.220 816.866, 1000.000 "
fill = "none" stroke = "black"/>
</g>
<g>
<polygon points = ""
fill = "none" stroke = "black"/>
</g>
<g>
<polygon points = ""
fill = "none" stroke = "black"/>
</g>
<g>
<polygon points = "657.430, 528.191 675.823, 531.685 779.307, 346.579 747.746, 315.987 736.740, 311.448 598.187, 356.245 588.457, 360.977 587.840, 411.058 "
fill = "none" stroke = "black"/>
</g>
<g>
<polygon points = ""
fill = "none" stroke = "black"/>
</g>
<g>
<polygon points = "751.910, 680.727 795.338, 613.072 675.823, 531.685 657.430, 528.191 558.881, 670.934 571.788, 677.946 718.457, 710.399 "
fill = "none" stroke = "black"/>
</g>
<g>
<polygon points = "1000.000, 249.958 1000.000, 177.834 934.705, 163.095 932.603, 202.156 948.601, 233.656 "
fill = "none" stroke = "black"/>
</g>
<g>
<polygon points = ""
fill = "none" stroke = "black"/>
</g>
<g>
<polygon points = "720.531, 160.005 685.219, 129.620 626.115, 111.800 509.736, 173.166 482.959, 248.968 521.094, 310.726 584.769, 356.707 598.187, 356.245 736.740, 311.448 "
fill = "none" stroke = "black"/>
</g>
<g>
<polygon points = "482.890, 843.941 525.725, 700.052 525.444, 689.001 498.249, 657.059 446.593, 622.317 313.218, 632.592 253.141, 661.978 207.038, 767.693 398.684, 889.314 "
fill = "none" stroke = "black"/>
</g>
<g>
<polygon points = ""
fill = "none" stroke = "black"/>
</g>
<g>
<polygon points = "0.000, 268.522 0.000, 530.004 125.981, 528.981 240.654, 411.487 192.635, 279.252 103.693, 221.672 93.802, 217.597 "
fill = "none" stroke = "black"/>
</g>
<g>
<polygon points = "111.502, 573.785 253.141, 661.978 313.218, 632.592 264.177, 395.503 240.654, 411.487 125.981, 528.981 "
fill = "none" stroke = "black"/>
</g>
<g>
<polygon points = ""
fill = "none" stroke = "black"/>
</g>
<g>
<polygon points = ""
fill = "none" stroke = "black"/>
</g>
<g>
<polygon points = ""
fill = "none" stroke = "black"/>
</g>
<g>
<polygon points = "1000.000, 535.403 1000.000, 443.880 884.036, 477.649 874.146, 508.539 906.859, 551.611 918.274, 555.689 "
fill = "none" stroke = "black"/>
</g>
<g>
<polygon points = "308.775, 0.000 322.597, 23.589 368.072, 24.271 374.050, 0.000 "
fill = "none" stroke = "black"/>
</g>
<g>
<polygon points = "178.051, 1000.000 355.025, 1000.000 396.944, 902.748 398.684, 889.314 207.038, 767.693 130.180, 790.021 115.904, 883.136 "
fill = "none" stroke = "black"/>
</g>
<g>
<polygon points = "86.053, 591.457 111.502, 573.785 125.981, 528.981 0.000, 530.004 0.000, 589.749 "
fill = "none" stroke = "black"/>
</g>
<g>
<polygon points = ""
fill = "none" stroke = "black"/>
</g>
<g>
<polygon points = ""
fill = "none" stroke = "black"/>
</g>
<g>
<polygon points = "747.746, 315.987 932.603, 202.156 934.705, 163.095 883.282, 107.814 720.531, 160.005 736.740, 311.448 "
fill = "none" stroke = "black"/>
</g>
<g>
<polygon points = "8.071, 1000.000 178.051, 1000.000 115.904, 883.136 "
fill = "none" stroke = "black"/>
</g>
<g>
<polygon points = "1000.000, 443.880 1000.000, 249.958 948.601, 233.656 808.403, 356.618 884.036, 477.649 "
fill = "none" stroke = "black"/>
</g>
<g>
<polygon points = "781.190, 0.000 831.794, 95.375 878.358, 93.824 899.839, 0.000 "
fill = "none" stroke = "black"/>
</g>
<g>
<polygon points = ""
fill = "none" stroke = "black"/>
</g>
<g>
<polygon points = "404.314, 453.013 587.840, 411.058 588.457, 360.977 584.769, 356.707 521.094, 310.726 451.138, 332.956 372.364, 415.324 "
fill = "none" stroke = "black"/>
</g>
<g>
<polygon points = ""
fill = "none" stroke = "black"/>
</g>
<g>
<polygon points = ""
fill = "none" stroke = "black"/>
</g>
<g>
<polygon points = ""
fill = "none" stroke = "black"/>
</g>
<g>
<polygon points = ""
fill = "none" stroke = "black"/>
</g>
<g>
<polygon points = "558.881, 670.934 657.430, 528.191 587.840, 411.058 404.314, 453.013 446.593, 622.317 498.249, 657.059 533.427, 674.080 "
fill = "none" stroke = "black"/>
</g>
<g>
<polygon points = "795.338, 613.072 797.349, 612.292 874.146, 508.539 884.036, 477.649 808.403, 356.618 779.307, 346.579 675.823, 531.685 "
fill = "none" stroke = "black"/>
</g>
<g>
<polygon points = ""
fill = "none" stroke = "black"/>
</g>
<g>
<polygon points = ""
fill = "none" stroke = "black"/>
</g>
<g>
<polygon points = ""
fill = "none" stroke = "black"/>
</g>
<g>
<polygon points = "355.025, 1000.000 472.948, 1000.000 396.944, 902.748 "
fill = "none" stroke = "black"/>
</g>
<g>
<polygon points = ""
fill = "none" stroke = "black"/>
</g>
<g>
<polygon points = "368.072, 24.271 322.597, 23.589 286.718, 166.394 318.089, 236.044 325.786, 232.274 397.891, 91.298 "
fill = "none" stroke = "black"/>
</g>
<g>
<polygon points = ""
fill = "none" stroke = "black"/>
</g>
<g>
<polygon points = ""
fill = "none" stroke = "black"/>
</g>
<g>
<polygon points = ""
fill = "none" stroke = "black"/>
</g>
<g>
<polygon points = ""
fill = "none" stroke = "black"/>
</g>
<g>
<polygon points = ""
fill = "none" stroke = "black"/>
</g>
<g>
<polygon points = "525.444, 689.001 525.725, 700.052 571.788, 677.946 558.881, 670.934 533.427, 674.080 "
fill = "none" stroke = "black"/>
</g>
<g>
<polygon points = ""
fill = "none" stroke = "black"/>
</g>
<g>
<polygon points = "86.053, 591.457 46.740, 701.230 130.180, 790.021 207.038, 767.693 253.141, 661.978 111.502, 573.785 "
fill = "none" stroke = "black"/>
</g>
<g>
<polygon points = "240.654, 411.487 264.177, 395.503 272.813, 385.830 272.277, 380.834 250.112, 303.635 192.635, 279.252 "
fill = "none" stroke = "black"/>
</g>
<g>
<polygon points = "869.012, 816.809 751.910, 680.727 718.457, 710.399 761.473, 832.887 "
fill = "none" stroke = "black"/>
</g>
<g>
<polygon points = ""
fill = "none" stroke = "black"/>
</g>
<g>
<polygon points = ""
fill = "none" stroke = "black"/>
</g>
<g>
<polygon points = ""
fill = "none" stroke = "black"/>
</g>
<g>
<polygon points = "905.737, 1000.000 887.726, 966.731 869.261, 994.220 875.350, 1000.000 "
fill = "none" stroke = "black"/>
</g>
<g>
<polygon points = "46.740, 701.230 86.053, 591.457 0.000, 589.749 0.000, 687.025 "
fill = "none" stroke = "black"/>
</g>
<g>
<polygon points = "66.375, 194.437 93.802, 217.597 103.693, 221.672 75.338, 184.329 "
fill = "none" stroke = "black"/>
</g>
<g>
<polygon points = "404.314, 453.013 372.364, 415.324 272.813, 385.830 264.177, 395.503 313.218, 632.592 446.593, 622.317 "
fill = "none" stroke = "black"/>
</g>
<g>
<polygon points = ""
fill = "none" stroke = "black"/>
</g>
<g>
<polygon points = ""
fill = "none" stroke = "black"/>
</g>
<g>
<polygon points = "812.909, 613.112 906.859, 551.611 874.146, 508.539 797.349, 612.292 "
fill = "none" stroke = "black"/>
</g>
<g>
<polygon points = "626.115, 111.800 554.376, 68.730 512.445, 112.021 509.736, 173.166 "
fill = "none" stroke = "black"/>
</g>
<g>
<polygon points = "374.050, 0.000 368.072, 24.271 397.891, 91.298 512.445, 112.021 554.376, 68.730 544.129, 0.000 "
fill = "none" stroke = "black"/>
</g>
<g>
<polygon points = "509.736, 173.166 512.445, 112.021 397.891, 91.298 325.786, 232.274 467.600, 253.821 482.959, 248.968 "
fill = "none" stroke = "black"/>
</g>
<g>
<polygon points = "544.129, 0.000 554.376, 68.730 626.115, 111.800 685.219, 129.620 831.794, 95.375 781.190, 0.000 "
fill = "none" stroke = "black"/>
</g>
<g>
<polygon points = "812.909, 613.112 797.349, 612.292 795.338, 613.072 751.910, 680.727 869.012, 816.809 873.482, 817.732 962.686, 720.550 849.747, 620.517 "
fill = "none" stroke = "black"/>
</g>
<g>
<polygon points = ""
fill = "none" stroke = "black"/>
</g>
<g>
<polygon points = ""
fill = "none" stroke = "black"/>
</g>
<g>
<polygon points = "883.282, 107.814 878.358, 93.824 831.794, 95.375 685.219, 129.620 720.531, 160.005 "
fill = "none" stroke = "black"/>
</g>
<g>
<polygon points = "747.746, 315.987 779.307, 346.579 808.403, 356.618 948.601, 233.656 932.603, 202.156 "
fill = "none" stroke = "black"/>
</g>
<g>
<polygon points = "76.124, 181.378 45.366, 0.000 0.000, 0.000 0.000, 203.393 66.375, 194.437 75.338, 184.329 "
fill = "none" stroke = "black"/>
</g>
<g>
<polygon points = "482.890, 843.941 398.684, 889.314 396.944, 902.748 472.948, 1000.000 609.479, 1000.000 "
fill = "none" stroke = "black"/>
</g>
<g>
<polygon points = "482.959, 248.968 467.600, 253.821 451.138, 332.956 521.094, 310.726 "
fill = "none" stroke = "black"/>
</g>
<g>
<polygon points = "308.775, 0.000 45.366, 0.000 76.124, 181.378 286.718, 166.394 322.597, 23.589 "
fill = "none" stroke = "black"/>
</g>
<g>
<polygon points = ""
fill = "none" stroke = "black"/>
</g>
<g>
<polygon points = ""
fill = "none" stroke = "black"/>
</g>
<g>
<polygon points = "533.427, 674.080 498.249, 657.059 525.444, 689.001 "
fill = "none" stroke = "black"/>
</g>
<g>
<polygon points = "918.274, 555.689 906.859, 551.611 812.909, 613.112 849.747, 620.517 "
fill = "none" stroke = "black"/>
</g>
<g>
<polygon points = ""
fill = "none" stroke = "black"/>
</g>
<g>
<polygon points = "962.686, 720.550 873.482, 817.732 887.726, 966.731 905.737, 1000.000 1000.000, 1000.000 1000.000, 710.094 "
fill = "none" stroke = "black"/>
</g>
<g>
<polygon points = ""
fill = "none" stroke = "black"/>
</g>
<g>
<polygon points = ""
fill = "none" stroke = "black"/>
</g>
<g>
<polygon points = "451.138, 332.956 467.600, 253.821 325.786, 232.274 318.089, 236.044 278.115, 291.220 272.277, 380.834 272.813, 385.830 372.364, 415.324 "
fill = "none" stroke = "black"/>
</g>
<g>
<polygon points = "192.635, 279.252 250.112, 303.635 278.115, 291.220 318.089, 236.044 286.718, 166.394 76.124, 181.378 75.338, 184.329 103.693, 221.672 "
fill = "none" stroke = "black"/>
</g>
<g>
<polygon points = ""
fill = "none" stroke = "black"/>
</g>
<g>
<polygon points = ""
fill = "none" stroke = "black"/>
</g>
<g>
<polygon points = ""
fill = "none" stroke = "black"/>
</g>
<g>
<polygon points = "1000.000, 0.000 899.839, 0.000 878.358, 93.824 883.282, 107.814 934.705, 163.095 1000.000, 177.834 "
fill = "none" stroke = "black"/>
</g>
<g>
<polygon points = "250.112, 303.635 272.277, 380.834 278.115, 291.220 "
fill = "none" stroke = "black"/>
</g>
<g>
<polygon points = ""
fill = "none" stroke = "black"/>
</g>
<g>
<polygon points = ""
fill = "none" stroke = "black"/>
</g>
<g>
<polygon points = ""
fill = "none" stroke = "black"/>
</g>
<g>
<polygon points = "816.866, 1000.000 869.261, 994.220 887.726, 966.731 873.482, 817.732 869.012, 816.809 761.473, 832.887 730.586, 1000.000 "
fill = "none" stroke = "black"/>
</g>
<g>
<polygon points = "609.479, 1000.000 730.586, 1000.000 761.473, 832.887 718.457, 710.399 571.788, 677.946 525.725, 700.052 482.890, 843.941 "
fill = "none" stroke = "black"/>
</g>
<g>
<polygon points = ""
fill = "none" stroke = "black"/>
</g>
<g>
<polygon points = ""
fill = "none" stroke = "black"/>
</g>
<g>
<polygon points = "598.187, 356.245 584.769, 356.707 588.457, 360.977 "
fill = "none" stroke = "black"/>
</g>
</svg>
