<svg xmlns = "http://www.w3.org/2000/svg" width = "1000" height = "1000">
<g>
<polygon points = "0.000, 767.999 0.000, 1000.000 94.949, 1000.000 22.538, 782.334 "
fill = "none" stroke = "black"/>
</g>
<g>
<polygon points = "761.387, 608.885 769.688, 540.478 646.641, 532.324 644.136, 591.332 "
fill = "none" stroke = "black"/>
</g>
<g>
<polygon points = "461.309, 791.348 527.613, 822.006 591.646, 800.864 594.184, 719.537 455.938, 742.296 "
fill = "none" stroke = "black"/>
</g>
<g>
<polygon points = "34.186, 307.465 6.459, 397.602 34.640, 396.389 97.795, 282.665 97.402, 266.278 "
fill = "none" stroke = "black"/>
</g>
<g>
<polygon points = "743.873, 77.453 745.676, 0.000 647.466, 0.000 633.743, 59.081 634.261, 70.082 643.204, 78.609 "
fill = "none" stroke = "black"/>
</g>
<g>
<polygon points = "373.712, 517.786 419.178, 540.804 440.018, 404.931 400.523, 396.911 355.803, 423.068 "
fill = "none" stroke = "black"/>
</g>
<g>
<polygon points = "858.982, 919.005 814.260, 920.556 818.483, 1000.000 885.889, 1000.000 "
fill = "none" stroke = "black"/>
</g>
<g>
<polygon points = "0.000, 515.659 79.892, 550.592 134.315, 544.764 80.923, 410.735 34.640, 396.389 6.459, 397.602 0.000, 399.131 "
fill = "none" stroke = "black"/>
</g>
<g>
<polygon points = "740.714, 1000.000 729.908, 944.062 722.346, 941.378 528.278, 1000.000 "
fill = "none" stroke = "black"/>
</g>
<g>
<polygon points = "332.090, 1000.000 515.931, 1000.000 468.914, 932.219 379.951, 881.239 330.481, 893.226 321.807, 935.808 "
fill = "none" stroke = "black"/>
</g>
<g>
<polygon points = "400.523, 396.911 440.018, 404.931 516.534, 382.175 551.598, 360.393 530.212, 294.319 351.270, 312.769 "
fill = "none" stroke = "black"/>
</g>
<g>
<polygon points = "633.743, 59.081 531.414, 54.442 593.431, 108.170 634.261, 70.082 "
fill = "none" stroke = "black"/>
</g>
<g>
<polygon points = "853.045, 542.654 896.147, 430.143 747.338, 398.123 745.493, 399.145 811.582, 506.174 "
fill = "none" stroke = "black"/>
</g>
<g>
<polygon points = "111.988, 312.869 97.795, 282.665 34.640, 396.389 80.923, 410.735 105.539, 396.950 "
fill = "none" stroke = "black"/>
</g>
<g>
<polygon points = "522.169, 262.763 516.540, 253.845 387.140, 229.401 321.256, 231.240 303.994, 249.173 351.270, 312.769 530.212, 294.319 "
fill = "none" stroke = "black"/>
</g>
<g>
<polygon points = "833.482, 279.066 916.799, 296.715 954.566, 174.387 894.644, 132.121 839.617, 165.036 "
fill = "none" stroke = "black"/>
</g>
<g>
<polygon points = "159.274, 921.941 106.678, 1000.000 332.090, 1000.000 321.807, 935.808 "
fill = "none" stroke = "black"/>
</g>
<g>
<polygon points = "624.081, 619.872 623.861, 620.799 626.244, 677.725 754.877, 773.855 775.561, 776.089 819.320, 756.302 857.059, 670.069 845.385, 640.000 761.387, 608.885 644.136, 591.332 "
fill = "none" stroke = "black"/>
</g>
<g>
<polygon points = "530.212, 294.319 551.598, 360.393 643.631, 395.429 676.247, 286.437 678.907, 208.049 583.069, 230.651 522.169, 262.763 "
fill = "none" stroke = "black"/>
</g>
<g>
<polygon points = "1000.000, 610.663 964.249, 617.029 906.596, 672.857 1000.000, 712.429 "
fill = "none" stroke = "black"/>
</g>
<g>
<polygon points = "358.321, 0.000 133.992, 0.000 200.016, 78.935 357.314, 10.181 "
fill = "none" stroke = "black"/>
</g>
<g>
<polygon points = "676.247, 286.437 747.912, 251.651 710.844, 166.171 705.064, 167.771 691.209, 183.052 678.907, 208.049 "
fill = "none" stroke = "black"/>
</g>
<g>
<polygon points = "528.278, 1000.000 722.346, 941.378 644.356, 856.026 630.393, 856.014 529.386, 983.666 521.331, 1000.000 "
fill = "none" stroke = "black"/>
</g>
<g>
<polygon points = "643.204, 78.609 634.261, 70.082 593.431, 108.170 592.873, 115.297 610.572, 133.817 676.363, 144.279 "
fill = "none" stroke = "black"/>
</g>
<g>
<polygon points = "283.229, 529.316 223.504, 566.428 316.451, 581.432 303.976, 521.120 "
fill = "none" stroke = "black"/>
</g>
<g>
<polygon points = "811.582, 506.174 745.493, 399.145 659.615, 409.641 655.359, 457.239 770.684, 536.556 "
fill = "none" stroke = "black"/>
</g>
<g>
<polygon points = "201.408, 714.353 183.979, 737.606 226.973, 791.565 322.073, 742.884 339.789, 705.418 332.081, 695.304 "
fill = "none" stroke = "black"/>
</g>
<g>
<polygon points = "379.951, 881.239 397.206, 833.862 331.080, 779.784 315.492, 874.805 330.481, 893.226 "
fill = "none" stroke = "black"/>
</g>
<g>
<polygon points = "513.846, 171.758 525.952, 52.661 419.193, 90.503 448.702, 129.625 "
fill = "none" stroke = "black"/>
</g>
<g>
<polygon points = "906.845, 1000.000 928.746, 933.604 904.293, 862.095 858.982, 919.005 885.889, 1000.000 "
fill = "none" stroke = "black"/>
</g>
<g>
<polygon points = "911.986, 425.531 896.147, 430.143 853.045, 542.654 864.378, 570.631 941.149, 535.726 953.383, 440.614 "
fill = "none" stroke = "black"/>
</g>
<g>
<polygon points = "455.938, 742.296 594.184, 719.537 626.244, 677.725 623.861, 620.799 441.691, 664.404 420.908, 703.880 "
fill = "none" stroke = "black"/>
</g>
<g>
<polygon points = "941.149, 535.726 967.232, 547.934 1000.000, 549.217 1000.000, 428.763 953.383, 440.614 "
fill = "none" stroke = "black"/>
</g>
<g>
<polygon points = "321.807, 935.808 330.481, 893.226 315.492, 874.805 307.631, 872.914 161.739, 915.939 159.274, 921.941 "
fill = "none" stroke = "black"/>
</g>
<g>
<polygon points = "911.640, 845.022 904.293, 862.095 928.746, 933.604 1000.000, 954.031 1000.000, 839.775 "
fill = "none" stroke = "black"/>
</g>
<g>
<polygon points = "623.861, 620.799 624.081, 619.872 560.249, 591.987 469.112, 559.029 444.794, 564.908 441.691, 664.404 "
fill = "none" stroke = "black"/>
</g>
<g>
<polygon points = "200.016, 78.935 200.307, 80.443 331.305, 147.123 372.497, 70.217 357.314, 10.181 "
fill = "none" stroke = "black"/>
</g>
<g>
<polygon points = "526.126, 517.712 500.910, 514.228 469.112, 559.029 560.249, 591.987 "
fill = "none" stroke = "black"/>
</g>
<g>
<polygon points = "1000.000, 1000.000 1000.000, 954.031 928.746, 933.604 906.845, 1000.000 "
fill = "none" stroke = "black"/>
</g>
<g>
<polygon points = "839.617, 165.036 754.901, 140.152 710.844, 166.171 747.912, 251.651 820.635, 292.710 833.482, 279.066 "
fill = "none" stroke = "black"/>
</g>
<g>
<polygon points = "775.561, 776.089 769.645, 908.274 814.260, 920.556 858.982, 919.005 904.293, 862.095 911.640, 845.022 819.320, 756.302 "
fill = "none" stroke = "black"/>
</g>
<g>
<polygon points = "0.000, 289.850 0.000, 399.131 6.459, 397.602 34.186, 307.465 "
fill = "none" stroke = "black"/>
</g>
<g>
<polygon points = "896.147, 430.143 911.986, 425.531 910.488, 386.562 814.038, 306.269 747.338, 398.123 "
fill = "none" stroke = "black"/>
</g>
<g>
<polygon points = "747.912, 251.651 676.247, 286.437 643.631, 395.429 659.615, 409.641 745.493, 399.145 747.338, 398.123 814.038, 306.269 820.635, 292.710 "
fill = "none" stroke = "black"/>
</g>
<g>
<polygon points = "1000.000, 188.669 1000.000, 0.000 924.535, 0.000 894.644, 132.121 954.566, 174.387 "
fill = "none" stroke = "black"/>
</g>
<g>
<polygon points = "313.039, 659.603 219.776, 628.716 201.408, 714.353 332.081, 695.304 "
fill = "none" stroke = "black"/>
</g>
<g>
<polygon points = "355.803, 423.068 287.234, 441.846 305.832, 516.126 373.712, 517.786 "
fill = "none" stroke = "black"/>
</g>
<g>
<polygon points = "592.873, 115.297 585.729, 121.127 590.766, 169.857 606.980, 164.563 610.572, 133.817 "
fill = "none" stroke = "black"/>
</g>
<g>
<polygon points = "448.702, 129.625 419.193, 90.503 372.497, 70.217 331.305, 147.123 321.256, 231.240 387.140, 229.401 "
fill = "none" stroke = "black"/>
</g>
<g>
<polygon points = "326.446, 603.154 316.451, 581.432 223.504, 566.428 171.206, 584.829 219.776, 628.716 313.039, 659.603 "
fill = "none" stroke = "black"/>
</g>
<g>
<polygon points = "647.314, 506.395 526.126, 517.712 560.249, 591.987 624.081, 619.872 644.136, 591.332 646.641, 532.324 "
fill = "none" stroke = "black"/>
</g>
<g>
<polygon points = "226.973, 791.565 223.054, 806.074 307.631, 872.914 315.492, 874.805 331.080, 779.784 322.073, 742.884 "
fill = "none" stroke = "black"/>
</g>
<g>
<polygon points = "125.996, 393.371 182.905, 493.610 244.041, 421.247 226.621, 371.198 187.816, 372.395 "
fill = "none" stroke = "black"/>
</g>
<g>
<polygon points = "729.908, 944.062 740.714, 1000.000 818.483, 1000.000 814.260, 920.556 769.645, 908.274 "
fill = "none" stroke = "black"/>
</g>
<g>
<polygon points = "526.126, 517.712 647.314, 506.395 655.359, 457.239 659.615, 409.641 643.631, 395.429 551.598, 360.393 516.534, 382.175 500.910, 514.228 "
fill = "none" stroke = "black"/>
</g>
<g>
<polygon points = "1000.000, 188.669 954.566, 174.387 916.799, 296.715 933.822, 308.809 1000.000, 311.096 "
fill = "none" stroke = "black"/>
</g>
<g>
<polygon points = "592.873, 115.297 593.431, 108.170 531.414, 54.442 526.616, 51.807 525.952, 52.661 513.846, 171.758 514.358, 172.651 585.729, 121.127 "
fill = "none" stroke = "black"/>
</g>
<g>
<polygon points = "619.569, 177.141 691.209, 183.052 705.064, 167.771 676.363, 144.279 610.572, 133.817 606.980, 164.563 "
fill = "none" stroke = "black"/>
</g>
<g>
<polygon points = "171.504, 868.013 223.054, 806.074 226.973, 791.565 183.979, 737.606 148.623, 730.477 127.555, 753.909 "
fill = "none" stroke = "black"/>
</g>
<g>
<polygon points = "754.877, 773.855 644.356, 856.026 722.346, 941.378 729.908, 944.062 769.645, 908.274 775.561, 776.089 "
fill = "none" stroke = "black"/>
</g>
<g>
<polygon points = "127.555, 753.909 148.623, 730.477 120.396, 671.392 0.000, 697.828 0.000, 767.999 22.538, 782.334 67.873, 781.856 "
fill = "none" stroke = "black"/>
</g>
<g>
<polygon points = "79.892, 550.592 0.000, 515.659 0.000, 661.671 "
fill = "none" stroke = "black"/>
</g>
<g>
<polygon points = "0.000, 289.850 34.186, 307.465 97.402, 266.278 108.177, 219.556 66.032, 194.554 0.000, 194.038 "
fill = "none" stroke = "black"/>
</g>
<g>
<polygon points = "911.640, 845.022 1000.000, 839.775 1000.000, 712.429 906.596, 672.857 857.059, 670.069 819.320, 756.302 "
fill = "none" stroke = "black"/>
</g>
<g>
<polygon points = "171.206, 584.829 160.104, 580.151 120.396, 671.392 148.623, 730.477 183.979, 737.606 201.408, 714.353 219.776, 628.716 "
fill = "none" stroke = "black"/>
</g>
<g>
<polygon points = "814.038, 306.269 910.488, 386.562 933.822, 308.809 916.799, 296.715 833.482, 279.066 820.635, 292.710 "
fill = "none" stroke = "black"/>
</g>
<g>
<polygon points = "108.177, 219.556 97.402, 266.278 97.795, 282.665 111.988, 312.869 187.816, 372.395 226.621, 371.198 260.213, 262.241 172.572, 213.522 "
fill = "none" stroke = "black"/>
</g>
<g>
<polygon points = "313.039, 659.603 332.081, 695.304 339.789, 705.418 420.908, 703.880 441.691, 664.404 444.794, 564.908 422.794, 549.008 326.446, 603.154 "
fill = "none" stroke = "black"/>
</g>
<g>
<polygon points = "521.331, 1000.000 529.386, 983.666 527.613, 822.006 461.309, 791.348 458.701, 796.517 468.914, 932.219 515.931, 1000.000 "
fill = "none" stroke = "black"/>
</g>
<g>
<polygon points = "518.757, 203.805 590.766, 169.857 585.729, 121.127 514.358, 172.651 "
fill = "none" stroke = "black"/>
</g>
<g>
<polygon points = "528.952, 0.000 526.616, 51.807 531.414, 54.442 633.743, 59.081 647.466, 0.000 "
fill = "none" stroke = "black"/>
</g>
<g>
<polygon points = "630.393, 856.014 591.646, 800.864 527.613, 822.006 529.386, 983.666 "
fill = "none" stroke = "black"/>
</g>
<g>
<polygon points = "967.232, 547.934 964.249, 617.029 1000.000, 610.663 1000.000, 549.217 "
fill = "none" stroke = "black"/>
</g>
<g>
<polygon points = "125.996, 393.371 105.539, 396.950 80.923, 410.735 134.315, 544.764 138.884, 546.384 182.832, 493.714 182.905, 493.610 "
fill = "none" stroke = "black"/>
</g>
<g>
<polygon points = "283.229, 529.316 303.976, 521.120 305.832, 516.126 287.234, 441.846 244.041, 421.247 182.905, 493.610 182.832, 493.714 "
fill = "none" stroke = "black"/>
</g>
<g>
<polygon points = "526.616, 51.807 528.952, 0.000 358.321, 0.000 357.314, 10.181 372.497, 70.217 419.193, 90.503 525.952, 52.661 "
fill = "none" stroke = "black"/>
</g>
<g>
<polygon points = "168.971, 872.991 171.504, 868.013 127.555, 753.909 67.873, 781.856 "
fill = "none" stroke = "black"/>
</g>
<g>
<polygon points = "400.523, 396.911 351.270, 312.769 303.994, 249.173 260.213, 262.241 226.621, 371.198 244.041, 421.247 287.234, 441.846 355.803, 423.068 "
fill = "none" stroke = "black"/>
</g>
<g>
<polygon points = "125.996, 393.371 187.816, 372.395 111.988, 312.869 105.539, 396.950 "
fill = "none" stroke = "black"/>
</g>
<g>
<polygon points = "619.569, 177.141 583.069, 230.651 678.907, 208.049 691.209, 183.052 "
fill = "none" stroke = "black"/>
</g>
<g>
<polygon points = "223.504, 566.428 283.229, 529.316 182.832, 493.714 138.884, 546.384 160.104, 580.151 171.206, 584.829 "
fill = "none" stroke = "black"/>
</g>
<g>
<polygon points = "458.701, 796.517 461.309, 791.348 455.938, 742.296 420.908, 703.880 339.789, 705.418 322.073, 742.884 331.080, 779.784 397.206, 833.862 "
fill = "none" stroke = "black"/>
</g>
<g>
<polygon points = "96.357, 0.000 0.000, 0.000 0.000, 194.038 66.032, 194.554 "
fill = "none" stroke = "black"/>
</g>
<g>
<polygon points = "397.206, 833.862 379.951, 881.239 468.914, 932.219 458.701, 796.517 "
fill = "none" stroke = "black"/>
</g>
<g>
<polygon points = "964.249, 617.029 967.232, 547.934 941.149, 535.726 864.378, 570.631 845.385, 640.000 857.059, 670.069 906.596, 672.857 "
fill = "none" stroke = "black"/>
</g>
<g>
<polygon points = "200.016, 78.935 133.992, 0.000 96.357, 0.000 66.032, 194.554 108.177, 219.556 172.572, 213.522 200.307, 80.443 "
fill = "none" stroke = "black"/>
</g>
<g>
<polygon points = "168.971, 872.991 67.873, 781.856 22.538, 782.334 94.949, 1000.000 106.678, 1000.000 159.274, 921.941 161.739, 915.939 "
fill = "none" stroke = "black"/>
</g>
<g>
<polygon points = "79.892, 550.592 0.000, 661.671 0.000, 697.828 120.396, 671.392 160.104, 580.151 138.884, 546.384 134.315, 544.764 "
fill = "none" stroke = "black"/>
</g>
<g>
<polygon points = "223.054, 806.074 171.504, 868.013 168.971, 872.991 161.739, 915.939 307.631, 872.914 "
fill = "none" stroke = "black"/>
</g>
<g>
<polygon points = "811.582, 506.174 770.684, 536.556 769.688, 540.478 761.387, 608.885 845.385, 640.000 864.378, 570.631 853.045, 542.654 "
fill = "none" stroke = "black"/>
</g>
<g>
<polygon points = "373.712, 517.786 305.832, 516.126 303.976, 521.120 316.451, 581.432 326.446, 603.154 422.794, 549.008 419.178, 540.804 "
fill = "none" stroke = "black"/>
</g>
<g>
<polygon points = "754.901, 140.152 839.617, 165.036 894.644, 132.121 924.535, 0.000 745.676, 0.000 743.873, 77.453 "
fill = "none" stroke = "black"/>
</g>
<g>
<polygon points = "626.244, 677.725 594.184, 719.537 591.646, 800.864 630.393, 856.014 644.356, 856.026 754.877, 773.855 "
fill = "none" stroke = "black"/>
</g>
<g>
<polygon points = "754.901, 140.152 743.873, 77.453 643.204, 78.609 676.363, 144.279 705.064, 167.771 710.844, 166.171 "
fill = "none" stroke = "black"/>
</g>
<g>
<polygon points = "260.213, 262.241 303.994, 249.173 321.256, 231.240 331.305, 147.123 200.307, 80.443 172.572, 213.522 "
fill = "none" stroke = "black"/>
</g>
<g>
<polygon points = "440.018, 404.931 419.178, 540.804 422.794, 549.008 444.794, 564.908 469.112, 559.029 500.910, 514.228 516.534, 382.175 "
fill = "none" stroke = "black"/>
</g>
<g>
<polygon points = "516.540, 253.845 522.169, 262.763 583.069, 230.651 619.569, 177.141 606.980, 164.563 590.766, 169.857 518.757, 203.805 "
fill = "none" stroke = "black"/>
</g>
<g>
<polygon points = "647.314, 506.395 646.641, 532.324 769.688, 540.478 770.684, 536.556 655.359, 457.239 "
fill = "none" stroke = "black"/>
</g>
<g>
<polygon points = "953.383, 440.614 1000.000, 428.763 1000.000, 311.096 933.822, 308.809 910.488, 386.562 911.986, 425.531 "
fill = "none" stroke = "black"/>
</g>
<g>
<polygon points = "513.846, 171.758 448.702, 129.625 387.140, 229.401 516.540, 253.845 518.757, 203.805 514.358, 172.651 "
fill = "none" stroke = "black"/>
</g>
</svg>
